<?xml version="1.0" encoding="utf-8"?>
<!-- Generator: Adobe Illustrator 25.2.0, SVG Export Plug-In . SVG Version: 6.00 Build 0)  -->
<svg version="1.1" id="Layer_1" xmlns="http://www.w3.org/2000/svg" xmlns:xlink="http://www.w3.org/1999/xlink" x="0px" y="0px"
	 viewBox="0 0 300 100" style="enable-background:new 0 0 300 100;" xml:space="preserve" >
<style type="text/css">
	.st0{fill:#002DAA;}
	.st1{fill:#007AFF;}
	.st2{fill:#FFFFFF;}
</style>
<g>
	<g>
		<path class="st0" d="M128.28,49.61h-23.63v-6.94h2.42V24.89h-2.42v-6.94h23.63v8.54h-7.58v-1.6h-6.05v5.42h3.55v-1.32h7.58v9.58
			h-7.58v-1.32h-3.55v5.42h6.05v-1.63h7.58V49.61z"/>
		<path class="st0" d="M153.03,49.61H132.1v-6.94h2.42V24.89h-2.42v-6.94h20.92l5.54,5.69v20.29L153.03,49.61z M149.64,42.67
			l1.34-1.43V26.29l-1.34-1.41h-7.53v17.79H149.64z"/>
		<path class="st0" d="M181.25,49.61h-12.33l-5.54-5.69V24.89h-2.42v-6.94h12.43v6.94h-2.4v16.36l1.32,1.43h5.57l1.34-1.43V24.89
			h-2.42v-6.94h12.43v6.94h-2.42v19.04L181.25,49.61z"/>
		<path class="st0" d="M213.3,49.61h-21.71v-6.94h2.42V24.89h-2.42v-6.94h12.43v6.94h-2.42v17.79h4.13v-1.63h7.58V49.61z"/>
		<path class="st0" d="M228.33,49.61H215.9v-6.94h2.42V24.89h-2.42v-6.94h12.43v6.94h-2.42v17.79h2.42V49.61z"/>
		<path class="st0" d="M244.46,49.61h-12.43v-6.94h2.42V24.89h-2.42v-6.94h23.63v8.54h-7.58v-1.6h-6.05v7.16h3.55v-1.32h7.61v9.58
			h-7.61v-1.3h-3.55v3.67h2.42V49.61z"/>
		<path class="st0" d="M282,49.61h-23.63v-6.94h2.42V24.89h-2.42v-6.94H282v8.54h-7.58v-1.6h-6.05v5.42h3.55v-1.32h7.58v9.58h-7.58
			v-1.32h-3.55v5.42h6.05v-1.63H282V49.61z"/>
		<path class="st0" d="M114.45,82.05h-10.03v-5.6h1.96V62.1h-1.96v-5.6h10.03v5.6h-1.96v14.36h1.96V82.05z"/>
		<path class="st0" d="M132,82.05h-10.03v-5.6h1.96V62.1h-1.24v2.18h-6.12V56.5h20.83v7.78h-6.12V62.1h-1.24v14.36H132V82.05z"/>
		<path class="st0" d="M164.51,82.05h-10.46l-4.47-4.59v-3.21h6.12v1.05l1.08,1.15h5.02l1.07-1.15v-2.09l-1.07-1.13h-7.74
			l-4.47-4.59v-6.4l4.47-4.59h10.46l4.47,4.59v3.19h-6.12v-1.05l-1.07-1.13h-5.02l-1.08,1.13v2.09l1.08,1.15h7.73l4.47,4.59v6.4
			L164.51,82.05z"/>
		<path class="st0" d="M187,82.05h-10.46l-4.47-4.59V61.09l4.47-4.59H187c1.5,1.52,2.99,3.05,4.47,4.59v3.19h-6.12v-1.05l-1.06-1.13
			h-5.02l-1.08,1.13V75.3l1.08,1.15h5.02l1.06-1.15v-1.05h6.12v3.21L187,82.05z"/>
		<path class="st0" d="M216.17,82.05h-10.03v-5.6h1.96v-4.38h-6.64v4.38h1.96v5.6h-10.03v-5.6h1.94V62.1h-1.94v-5.6h10.03v5.6h-1.96
			v4.38h6.64V62.1h-1.96v-5.6h10.03v5.6h-1.96v14.36h1.96V82.05z"/>
		<path class="st0" d="M233.64,82.05h-10.46l-4.49-4.59V61.09l4.49-4.59h10.46l4.47,4.59v16.38L233.64,82.05z M230.91,76.45
			L232,75.3V63.23l-1.08-1.13h-5.02l-1.07,1.13V75.3l1.07,1.15H230.91z"/>
		<path class="st0" d="M256.93,82.05h-10.46l-4.49-4.59V61.09l4.49-4.59h10.46l4.47,4.59v16.38L256.93,82.05z M254.2,76.45
			l1.08-1.15V63.23l-1.08-1.13h-5.02l-1.07,1.13V75.3l1.07,1.15H254.2z"/>
		<path class="st0" d="M281,82.05h-17.52v-5.6h1.96V62.1h-1.96v-5.6h10.03v5.6h-1.96v14.36h3.33v-1.31H281V82.05z"/>
	</g>
	<g>
		<g>
			<polygon class="st1" points="88.73,56 86.52,54.89 84.35,56.08 84.73,53.63 82.93,51.94 85.37,51.54 86.43,49.3 87.56,51.5 
				90.01,51.81 88.27,53.57 			"/>
		</g>
		<g>
			<polygon class="st1" points="27.86,56 25.65,54.89 23.48,56.08 23.86,53.63 22.06,51.94 24.5,51.54 25.55,49.3 26.69,51.5 
				29.14,51.81 27.4,53.57 			"/>
		</g>
		<g>
			<g id="XMLID_66_">
				<path class="st1" d="M63.35,53.56c0.24,0,0.43,0.2,0.43,0.44l0,1.07v0.02l0,0.62l-0.01,2.31c0,0.37-0.2,0.71-0.52,0.89
					l-5.22,2.99l-1.48,0.85c-0.01,0.01-0.03,0.01-0.04,0.02V45.58c0-0.05,0.05-0.08,0.1-0.06c0,0,0,0,0,0l1.39,0.81
					c0.02,0.01,0.03,0.03,0.03,0.06v13.37c0,0.17,0.18,0.27,0.33,0.19l3.47-1.99c0.26-0.15,0.41-0.42,0.41-0.71l0.01-1.54l0-0.62
					v-0.02l0-1.07c0-0.24,0.19-0.43,0.43-0.43H63.35z"/>
			</g>
			<g id="XMLID_65_">
				<path class="st1" d="M55.62,45.64v6.98c0,0.17-0.14,0.31-0.31,0.31H54.4c-0.17,0-0.31-0.14-0.31-0.31v-4.39
					c0-0.04-0.05-0.07-0.09-0.05l-3.69,2.12c-0.26,0.15-0.41,0.42-0.41,0.71l-0.01,1.91l0,0.58c0,0.03,0.03,0.06,0.06,0.06h5.36
					c0.17,0,0.31,0.14,0.31,0.31v0.89c0,0.17-0.14,0.31-0.31,0.31h-5.43v0.02l0,0.62l0,1.5c0,0.29,0.16,0.57,0.41,0.72l3.72,2.17
					c0.04,0.02,0.09-0.01,0.09-0.05v-4.02c0-0.17,0.14-0.31,0.31-0.31h0.91c0.17,0,0.31,0.14,0.31,0.31v6.67
					c0,0.04-0.05,0.07-0.09,0.05l0,0L54.1,61.9l-5.24-3.05c-0.32-0.18-0.51-0.53-0.51-0.89l0.01-2.26l0-0.62v-0.02l0-1.51l0-0.64
					l0.01-2.68c0-0.37,0.2-0.71,0.52-0.89l5.2-2.98l1.4-0.8C55.56,45.6,55.57,45.61,55.62,45.64z"/>
			</g>
		</g>
	</g>
	<g>
		<g id="XMLID_64_">
			<path class="st0" d="M64.69,49.82L64.69,49.82l-0.01,3.11l0,0.64l0,1.51v0.02l0,0.62l-0.01,2.79c0,0.39-0.21,0.75-0.55,0.95
				l-6.07,3.48l-1.45,0.83c-0.02,0.01-0.05,0.03-0.07,0.04c-0.28,0.14-0.61,0.14-0.9,0.02c-0.04-0.02-0.08-0.04-0.12-0.06l-1.4-0.81
				L48,59.38c-0.34-0.2-0.55-0.56-0.54-0.95l0.01-2.73l0-0.62v-0.02l0-1.51l0-0.64l0.01-3.16v-8.51c0-0.2,0.2-0.34,0.39-0.28
				l8.05,2.88l6.72-2.34v6.93l-4.61-2.68l-1.39-0.81c-0.04-0.03-0.09-0.05-0.13-0.07c-0.29-0.12-0.62-0.11-0.9,0.03
				c-0.02,0.01-0.04,0.02-0.06,0.03L54.1,45.8l-5.66,3.24c-0.34,0.19-0.55,0.55-0.55,0.95l-0.01,2.93l0,0.64l-0.01,1.51v0.02l0,0.62
				l-0.01,2.5c0,0.39,0.21,0.75,0.54,0.95l5.7,3.32l1.4,0.81c0.04,0.02,0.08,0.04,0.12,0.06c0.29,0.12,0.62,0.12,0.9-0.02
				c0.02-0.01,0.05-0.02,0.07-0.04l1.45-0.83l5.67-3.25c0.34-0.19,0.55-0.56,0.55-0.95l0.01-2.56l0-0.62v-0.02l0-1.51l0-0.64
				l0.01-2.87c0-0.39-0.21-0.75-0.54-0.95l-0.7-0.41v-7.31l1.24-0.43c0.19-0.07,0.39,0.08,0.39,0.28L64.69,49.82z"/>
		</g>
		<g id="XMLID_63_">
			<path class="st0" d="M65.98,40.12l-2.93,1v-0.46c0-0.11-0.09-0.2-0.2-0.2c-0.11,0-0.2,0.09-0.2,0.2v0.59l-6.61,2.26
				c-0.04,0.01-0.08,0.01-0.12,0l-9.83-3.45c-0.16-0.06-0.16-0.29,0-0.35l9.94-3.61c0.04-0.01,0.09-0.01,0.13,0l9.83,3.66
				C66.14,39.83,66.14,40.06,65.98,40.12z"/>
		</g>
		<g id="XMLID_15_">
			<g id="XMLID_16_">
				<path class="st0" d="M63.59,50.54v1.21l0,0l-0.18,0.19c-0.01,0.01-0.03,0.01-0.05,0l-0.46-0.46c-0.01-0.01-0.03-0.01-0.05,0
					l-0.48,0.48c-0.01,0.01-0.03,0.01-0.05,0l-0.21-0.21v-1.21l0.01-0.01l0.62-0.62c0,0,0,0,0,0v-9.25c0-0.06,0.05-0.11,0.11-0.11
					c0.06,0,0.11,0.05,0.11,0.11v9.25L63.59,50.54z"/>
			</g>
		</g>
	</g>
	<g>
		<g>
			<path class="st0" d="M56.03,25.66C42.59,25.66,31.7,36.56,31.7,50s10.9,24.34,24.34,24.34S80.37,63.44,80.37,50
				S69.47,25.66,56.03,25.66z M56.03,66.24c-8.97,0-16.24-7.27-16.24-16.24c0-8.97,7.27-16.24,16.24-16.24
				c8.97,0,16.24,7.27,16.24,16.24C72.28,58.97,65.01,66.24,56.03,66.24z"/>
		</g>
	</g>
	<g>
		<g>
			<g>
				<g>
					<path class="st2" d="M67.47,33.55c-0.63-0.67-1.11-1.56-0.73-2.88c0.5,0.35,0.86,0.76,0.98,1.27
						C67.84,32.44,67.77,32.98,67.47,33.55z"/>
				</g>
				<g>
					<path class="st2" d="M67.44,33.59c-0.82-0.42-1.87-0.37-2.74,0.64c0.44,0.23,0.92,0.26,1.37,0.17
						C66.53,34.31,67,34.05,67.44,33.59z"/>
				</g>
				<g>
					<path class="st2" d="M65.94,32.54c-0.44-1.33-1.64-2-3.2-1.54c0.18,0.33,0.37,0.62,0.59,0.84c0.22,0.23,0.46,0.39,0.71,0.53
						C64.55,32.65,65.19,32.67,65.94,32.54z"/>
				</g>
			</g>
			<g>
				<g>
					<path class="st2" d="M69.27,34.99c-0.32-0.42-0.59-0.87-0.7-1.44c-0.05-0.28-0.07-0.58-0.05-0.89c0.03-0.31,0.1-0.65,0.25-1.01
						c0.56,0.43,0.87,0.99,0.96,1.56C69.84,33.79,69.69,34.38,69.27,34.99z"/>
				</g>
				<g>
					<path class="st2" d="M69.24,35.03c-0.44-0.28-0.97-0.43-1.5-0.41c-0.27,0.01-0.54,0.08-0.83,0.22
						c-0.28,0.14-0.56,0.33-0.84,0.59c0.49,0.27,0.98,0.41,1.51,0.35C68.12,35.73,68.69,35.48,69.24,35.03z"/>
				</g>
			</g>
			<g>
				<g>
					<path class="st2" d="M71.22,37c-0.32-0.5-0.52-1.08-0.57-1.72c-0.06-0.63,0.06-1.34,0.48-2.12c0.27,0.29,0.49,0.61,0.64,0.92
						c0.16,0.31,0.22,0.66,0.23,0.99C72.03,35.74,71.77,36.38,71.22,37z"/>
				</g>
				<g>
					<path class="st2" d="M71.18,37.03c-0.47-0.36-1.01-0.64-1.63-0.67c-0.62-0.02-1.29,0.17-1.98,0.69c0.24,0.2,0.5,0.34,0.78,0.43
						c0.28,0.09,0.55,0.16,0.85,0.16C69.81,37.66,70.48,37.47,71.18,37.03z"/>
				</g>
			</g>
			<g>
				<g>
					<path class="st2" d="M72.88,39.25c-0.24-0.54-0.35-1.16-0.34-1.78c0.03-0.63,0.25-1.33,0.77-2.04c0.23,0.33,0.4,0.67,0.5,1.01
						c0.11,0.33,0.15,0.67,0.1,1.01C73.85,38.11,73.5,38.72,72.88,39.25z"/>
				</g>
				<g>
					<path class="st2" d="M72.83,39.28c-0.42-0.42-0.9-0.79-1.52-0.88c-0.61-0.11-1.29-0.01-2.04,0.41c0.21,0.23,0.44,0.41,0.7,0.54
						c0.26,0.13,0.54,0.22,0.83,0.27C71.39,39.72,72.08,39.62,72.83,39.28z"/>
				</g>
			</g>
			<g>
				<g>
					<path class="st2" d="M74.22,41.71c-0.08-0.29-0.13-0.58-0.14-0.89c-0.02-0.3-0.02-0.61,0.04-0.92
						c0.12-0.63,0.44-1.29,1.04-1.92c0.38,0.71,0.49,1.44,0.35,2.07C75.34,40.7,74.91,41.26,74.22,41.71z"/>
				</g>
				<g>
					<path class="st2" d="M74.17,41.73c-0.17-0.24-0.37-0.47-0.59-0.66c-0.23-0.18-0.51-0.33-0.8-0.43
						c-0.59-0.19-1.26-0.19-2.08,0.14c0.37,0.5,0.83,0.85,1.42,1.01C72.68,41.97,73.38,41.96,74.17,41.73z"/>
				</g>
			</g>
			<g>
				<g>
					<path class="st2" d="M75.21,44.32c-0.04-0.6-0.06-1.2,0.16-1.81c0.22-0.61,0.6-1.21,1.28-1.76c0.07,0.19,0.13,0.37,0.18,0.55
						c0.03,0.19,0.05,0.37,0.05,0.55c0,0.36-0.05,0.69-0.17,1c-0.06,0.15-0.13,0.3-0.22,0.44c-0.1,0.14-0.21,0.27-0.34,0.4
						C75.9,43.93,75.59,44.14,75.21,44.32z"/>
				</g>
				<g>
					<path class="st2" d="M75.16,44.33c-0.24-0.53-0.69-0.98-1.23-1.26c-0.53-0.28-1.24-0.35-2.09-0.14
						c0.08,0.13,0.16,0.26,0.26,0.37c0.09,0.12,0.18,0.23,0.28,0.33c0.21,0.2,0.45,0.36,0.73,0.48c0.14,0.06,0.29,0.11,0.45,0.15
						c0.15,0.04,0.31,0.07,0.48,0.09C74.38,44.4,74.75,44.4,75.16,44.33z"/>
				</g>
			</g>
			<g>
				<g>
					<path class="st2" d="M75.85,47.04c0.01-0.59,0.1-1.19,0.41-1.77c0.29-0.57,0.74-1.12,1.5-1.56c0.08,0.39,0.13,0.77,0.09,1.12
						c-0.05,0.36-0.16,0.68-0.32,0.97C77.19,46.38,76.65,46.8,75.85,47.04z"/>
				</g>
				<g>
					<path class="st2" d="M75.79,47.05c-0.19-0.56-0.55-1.07-1.04-1.42c-0.51-0.35-1.2-0.51-2.06-0.42
						c0.11,0.29,0.27,0.54,0.45,0.77c0.17,0.23,0.38,0.42,0.64,0.58C74.3,46.87,74.98,47.06,75.79,47.05z"/>
				</g>
			</g>
			<g>
				<g>
					<path class="st2" d="M71.59,62.94c0.91-0.75,2.11-1.28,3.78-0.75c-0.23,0.34-0.52,0.6-0.81,0.81c-0.15,0.1-0.3,0.19-0.45,0.26
						c-0.16,0.07-0.32,0.11-0.49,0.15C72.96,63.53,72.28,63.39,71.59,62.94z"/>
				</g>
				<g>
					<path class="st2" d="M71.55,62.9c0.6-1.03,0.65-2.36-0.63-3.53c-0.13,0.28-0.25,0.54-0.29,0.82c-0.02,0.14-0.03,0.29-0.03,0.43
						c0,0.14,0,0.29,0.03,0.43C70.71,61.65,71.01,62.29,71.55,62.9z"/>
				</g>
			</g>
			<g>
				<g>
					<path class="st2" d="M69.6,64.91c0.52-0.29,1.07-0.53,1.73-0.59c0.63-0.07,1.35,0.03,2.13,0.44c-0.29,0.28-0.6,0.51-0.92,0.68
						c-0.33,0.15-0.66,0.24-1,0.25C70.89,65.73,70.21,65.45,69.6,64.91z"/>
				</g>
				<g>
					<path class="st2" d="M69.57,64.87c0.39-0.45,0.63-1.02,0.66-1.62c0.02-0.62-0.2-1.28-0.74-1.95c-0.19,0.24-0.32,0.5-0.41,0.77
						c-0.1,0.26-0.15,0.55-0.14,0.85C68.95,63.52,69.12,64.16,69.57,64.87z"/>
				</g>
			</g>
			<g>
				<g>
					<path class="st2" d="M67.34,66.55c0.28-0.1,0.56-0.2,0.86-0.25c0.15-0.03,0.3-0.04,0.46-0.05c0.15-0.01,0.31-0.02,0.47-0.01
						c0.32,0.02,0.65,0.08,1,0.21c0.34,0.12,0.69,0.3,1.04,0.56c-0.32,0.25-0.68,0.42-1.02,0.52c-0.17,0.05-0.34,0.09-0.51,0.11
						c-0.17,0.02-0.34,0.01-0.51-0.01C68.47,67.55,67.86,67.19,67.34,66.55z"/>
				</g>
				<g>
					<path class="st2" d="M67.31,66.5c0.23-0.18,0.41-0.43,0.57-0.67c0.08-0.13,0.15-0.25,0.2-0.39c0.05-0.14,0.09-0.29,0.12-0.44
						c0.06-0.3,0.06-0.62,0-0.96c-0.07-0.34-0.21-0.71-0.42-1.08c-0.21,0.22-0.39,0.44-0.52,0.7c-0.07,0.13-0.12,0.26-0.16,0.4
						c-0.05,0.13-0.08,0.27-0.11,0.42C66.91,65.06,66.99,65.75,67.31,66.5z"/>
				</g>
			</g>
			<g>
				<g>
					<path class="st2" d="M64.85,67.83c1.15-0.28,2.44-0.19,3.7,1.03C67.06,69.61,65.72,69.21,64.85,67.83z"/>
				</g>
				<g>
					<path class="st2" d="M64.83,67.78c0.98-0.67,1.66-1.83,1.03-3.45C64.9,65.02,64.38,66.19,64.83,67.78z"/>
				</g>
			</g>
			<g>
				<g>
					<path class="st2" d="M76.08,49.83c0.04-0.29,0.11-0.58,0.22-0.87c0.11-0.29,0.26-0.56,0.43-0.83c0.35-0.53,0.9-1,1.71-1.34
						c0.04,0.81-0.09,1.51-0.53,2.04C77.51,49.36,76.89,49.7,76.08,49.83z"/>
				</g>
				<g>
					<path class="st2" d="M76.03,49.83c-0.06-0.29-0.16-0.57-0.29-0.84c-0.13-0.26-0.3-0.51-0.54-0.71
						c-0.47-0.41-1.11-0.67-1.97-0.71c0.12,0.6,0.46,1.1,0.89,1.49C74.57,49.45,75.21,49.72,76.03,49.83z"/>
				</g>
			</g>
			<g>
				<g>
					<path class="st2" d="M75.94,52.75c0.08-0.28,0.2-0.56,0.35-0.83c0.15-0.27,0.3-0.52,0.52-0.76c0.43-0.47,1.05-0.86,1.9-1.07
						c-0.07,0.79-0.34,1.46-0.8,1.92C77.42,52.47,76.76,52.73,75.94,52.75z"/>
				</g>
				<g>
					<path class="st2" d="M75.88,52.74c-0.02-0.3-0.07-0.59-0.17-0.87c-0.09-0.28-0.26-0.55-0.45-0.78
						c-0.4-0.47-0.98-0.83-1.83-0.99c0.03,0.63,0.26,1.17,0.67,1.62C74.49,52.17,75.08,52.53,75.88,52.74z"/>
				</g>
			</g>
			<g>
				<g>
					<path class="st2" d="M75.43,55.5c0.12-0.27,0.28-0.53,0.45-0.78c0.17-0.25,0.37-0.48,0.62-0.69c0.25-0.21,0.54-0.39,0.87-0.53
						c0.33-0.14,0.7-0.25,1.14-0.3c-0.04,0.2-0.07,0.38-0.14,0.56c-0.07,0.18-0.15,0.34-0.24,0.5c-0.18,0.31-0.4,0.57-0.66,0.77
						C76.95,55.43,76.24,55.59,75.43,55.5z"/>
				</g>
				<g>
					<path class="st2" d="M75.38,55.48c0.02-0.3,0.02-0.59-0.05-0.88c-0.07-0.29-0.18-0.57-0.35-0.83c-0.16-0.26-0.38-0.49-0.66-0.7
						c-0.29-0.21-0.64-0.38-1.05-0.51c-0.01,0.16,0.01,0.31,0.02,0.46c0.01,0.15,0.03,0.29,0.07,0.43c0.07,0.28,0.2,0.54,0.38,0.79
						C74.09,54.74,74.61,55.17,75.38,55.48z"/>
				</g>
			</g>
			<g>
				<g>
					<path class="st2" d="M74.54,58.15c0.16-0.25,0.36-0.48,0.56-0.7c0.2-0.22,0.44-0.42,0.71-0.59c0.56-0.33,1.22-0.57,2.1-0.55
						c-0.06,0.19-0.14,0.37-0.22,0.54c-0.09,0.17-0.19,0.32-0.3,0.46c-0.22,0.28-0.48,0.51-0.76,0.67
						C76.06,58.3,75.33,58.36,74.54,58.15z"/>
				</g>
				<g>
					<path class="st2" d="M74.49,58.13c0.06-0.29,0.11-0.58,0.08-0.88c-0.03-0.3-0.1-0.59-0.22-0.87c-0.24-0.55-0.75-1.06-1.53-1.43
						c-0.03,0.15-0.04,0.3-0.04,0.45c0,0.15,0,0.29,0.01,0.43c0.03,0.28,0.12,0.56,0.26,0.83C73.33,57.2,73.78,57.7,74.49,58.13z"/>
				</g>
			</g>
			<g>
				<g>
					<path class="st2" d="M73.27,60.64c0.19-0.22,0.41-0.43,0.66-0.61c0.23-0.19,0.49-0.35,0.79-0.48c0.29-0.13,0.63-0.22,0.99-0.26
						c0.35-0.05,0.75-0.04,1.18,0.03c-0.09,0.18-0.19,0.35-0.3,0.51c-0.12,0.15-0.24,0.29-0.37,0.41c-0.26,0.25-0.55,0.43-0.85,0.55
						C74.72,61.01,74.02,60.96,73.27,60.64z"/>
				</g>
				<g>
					<path class="st2" d="M73.22,60.61c0.1-0.28,0.18-0.57,0.21-0.86c0.02-0.3-0.01-0.6-0.09-0.89c-0.16-0.58-0.57-1.15-1.3-1.63
						c-0.05,0.15-0.08,0.29-0.1,0.44c-0.03,0.14-0.05,0.28-0.05,0.42c-0.01,0.28,0.04,0.57,0.14,0.86
						C72.2,59.51,72.59,60.08,73.22,60.61z"/>
				</g>
			</g>
			<g>
				<path class="st2" d="M65.14,69.46c-0.21-0.19-0.83-0.87-1.03-1.35c-0.2-0.48-0.29-1.4-0.29-1.67c-0.3,0.5-0.09,1.49-0.4,1.7
					c-0.08,0.06-0.69,0.3-1.59,0.62c-0.9,0.32-2.08,0.72-3.29,1.12c-1.2,0.41-2.42,0.84-3.38,1.24c-0.96,0.41-1.66,0.78-1.85,0.93
					c-0.4,0.25-0.54,0.55-0.58,0.75c-0.04,0.2,0.01,0.32,0.01,0.32s0.13,0.06,0.33,0.06c0.2,0,0.45-0.06,0.8-0.27
					c0.16-0.12,0.78-0.5,1.67-0.95c0.89-0.45,2.07-0.95,3.23-1.44c1.17-0.48,2.33-0.95,3.22-1.31c0.89-0.36,1.5-0.62,1.6-0.64
					C63.98,68.51,64.54,69.35,65.14,69.46z"/>
			</g>
		</g>
		<g>
			<g>
				<g>
					<path class="st2" d="M44.55,33.59c0.82-0.42,1.87-0.37,2.74,0.64c-0.44,0.23-0.92,0.26-1.37,0.17
						C45.47,34.31,45,34.05,44.55,33.59z"/>
				</g>
				<g>
					<path class="st2" d="M44.53,33.55c0.63-0.67,1.11-1.56,0.73-2.88c-0.5,0.35-0.86,0.76-0.98,1.27
						C44.16,32.44,44.23,32.98,44.53,33.55z"/>
				</g>
				<g>
					<path class="st2" d="M46.09,32.6c1.37,0.22,2.34-0.09,3.21-1.5c-0.34-0.12-0.68-0.19-1.01-0.19c-0.33,0-0.65,0.04-0.93,0.18
						C46.79,31.36,46.32,31.84,46.09,32.6z"/>
				</g>
			</g>
			<g>
				<g>
					<path class="st2" d="M42.76,35.03c0.44-0.28,0.97-0.43,1.5-0.41c0.27,0.01,0.54,0.08,0.83,0.22c0.28,0.14,0.56,0.33,0.84,0.59
						c-0.49,0.27-0.98,0.41-1.51,0.35C43.88,35.73,43.31,35.48,42.76,35.03z"/>
				</g>
				<g>
					<path class="st2" d="M42.72,34.99c0.32-0.42,0.59-0.87,0.7-1.44c0.05-0.28,0.07-0.58,0.05-0.89c-0.03-0.31-0.1-0.65-0.25-1.01
						c-0.56,0.43-0.87,0.99-0.96,1.56C42.16,33.79,42.31,34.38,42.72,34.99z"/>
				</g>
			</g>
			<g>
				<g>
					<path class="st2" d="M40.82,37.03c0.47-0.36,1.01-0.64,1.63-0.67c0.62-0.02,1.29,0.17,1.98,0.69c-0.24,0.2-0.5,0.34-0.78,0.43
						c-0.28,0.09-0.55,0.16-0.85,0.16C42.19,37.66,41.52,37.47,40.82,37.03z"/>
				</g>
				<g>
					<path class="st2" d="M40.77,37c0.32-0.5,0.52-1.08,0.57-1.72c0.06-0.63-0.06-1.34-0.49-2.12c-0.27,0.29-0.49,0.61-0.64,0.92
						c-0.16,0.31-0.22,0.66-0.23,0.99C39.97,35.74,40.23,36.38,40.77,37z"/>
				</g>
			</g>
			<g>
				<g>
					<path class="st2" d="M39.17,39.28c0.42-0.42,0.9-0.79,1.52-0.88c0.61-0.11,1.29-0.01,2.04,0.41c-0.21,0.23-0.44,0.41-0.7,0.54
						c-0.26,0.13-0.54,0.22-0.83,0.27C40.61,39.72,39.92,39.62,39.17,39.28z"/>
				</g>
				<g>
					<path class="st2" d="M39.12,39.25c0.24-0.54,0.35-1.16,0.34-1.78c-0.03-0.63-0.25-1.33-0.77-2.04c-0.23,0.33-0.4,0.67-0.5,1.01
						c-0.11,0.33-0.15,0.67-0.1,1.01C38.15,38.11,38.5,38.72,39.12,39.25z"/>
				</g>
			</g>
			<g>
				<g>
					<path class="st2" d="M37.83,41.73c0.17-0.24,0.37-0.47,0.59-0.66c0.23-0.18,0.51-0.33,0.8-0.43c0.59-0.19,1.26-0.19,2.08,0.14
						c-0.37,0.5-0.83,0.85-1.42,1.01C39.31,41.97,38.62,41.96,37.83,41.73z"/>
				</g>
				<g>
					<path class="st2" d="M37.78,41.71c0.08-0.29,0.13-0.58,0.14-0.89c0.02-0.3,0.02-0.61-0.04-0.92c-0.12-0.63-0.44-1.29-1.04-1.92
						c-0.38,0.71-0.49,1.44-0.35,2.07C36.66,40.7,37.09,41.26,37.78,41.71z"/>
				</g>
			</g>
			<g>
				<g>
					<path class="st2" d="M36.84,44.33c0.24-0.53,0.69-0.98,1.23-1.26c0.53-0.28,1.24-0.35,2.09-0.14
						c-0.08,0.13-0.16,0.26-0.26,0.37c-0.09,0.12-0.18,0.23-0.28,0.33c-0.21,0.2-0.45,0.36-0.73,0.48
						c-0.14,0.06-0.29,0.11-0.45,0.15c-0.15,0.04-0.31,0.07-0.48,0.09C37.62,44.4,37.24,44.4,36.84,44.33z"/>
				</g>
				<g>
					<path class="st2" d="M36.78,44.32c0.04-0.6,0.06-1.2-0.16-1.81c-0.22-0.61-0.6-1.21-1.28-1.76c-0.07,0.19-0.13,0.37-0.18,0.55
						c-0.03,0.19-0.05,0.37-0.05,0.55c0,0.36,0.05,0.69,0.17,1c0.06,0.15,0.13,0.3,0.22,0.44c0.1,0.14,0.21,0.27,0.34,0.4
						C36.1,43.93,36.41,44.14,36.78,44.32z"/>
				</g>
			</g>
			<g>
				<g>
					<path class="st2" d="M36.21,47.05c0.19-0.56,0.55-1.07,1.04-1.42c0.51-0.35,1.2-0.51,2.06-0.42c-0.11,0.29-0.27,0.54-0.45,0.77
						c-0.17,0.23-0.38,0.42-0.64,0.58C37.7,46.87,37.01,47.06,36.21,47.05z"/>
				</g>
				<g>
					<path class="st2" d="M36.15,47.04c-0.01-0.59-0.1-1.19-0.41-1.77c-0.29-0.57-0.74-1.12-1.5-1.56
						c-0.08,0.39-0.13,0.77-0.09,1.12c0.05,0.36,0.16,0.68,0.32,0.97C34.8,46.38,35.35,46.8,36.15,47.04z"/>
				</g>
			</g>
			<g>
				<g>
					<path class="st2" d="M40.45,62.9c-0.6-1.03-0.65-2.36,0.63-3.53c0.13,0.28,0.25,0.54,0.29,0.82c0.02,0.14,0.03,0.29,0.03,0.43
						c0,0.14,0,0.29-0.03,0.43C41.29,61.65,40.99,62.29,40.45,62.9z"/>
				</g>
				<g>
					<path class="st2" d="M40.41,62.94c-0.91-0.75-2.11-1.28-3.78-0.75c0.23,0.34,0.52,0.6,0.81,0.81c0.15,0.1,0.3,0.19,0.45,0.26
						c0.16,0.07,0.32,0.11,0.49,0.15C39.03,63.53,39.71,63.39,40.41,62.94z"/>
				</g>
			</g>
			<g>
				<g>
					<path class="st2" d="M42.43,64.87c-0.39-0.45-0.63-1.02-0.66-1.62c-0.02-0.62,0.2-1.28,0.74-1.95c0.19,0.24,0.32,0.5,0.41,0.77
						c0.1,0.26,0.15,0.55,0.14,0.85C43.05,63.52,42.87,64.16,42.43,64.87z"/>
				</g>
				<g>
					<path class="st2" d="M42.39,64.91c-0.52-0.29-1.07-0.53-1.73-0.59c-0.63-0.07-1.35,0.03-2.13,0.44
						c0.29,0.28,0.6,0.51,0.92,0.68c0.33,0.15,0.66,0.24,1,0.25C41.11,65.73,41.78,65.45,42.39,64.91z"/>
				</g>
			</g>
			<g>
				<g>
					<path class="st2" d="M44.69,66.5c-0.23-0.18-0.41-0.43-0.57-0.67c-0.08-0.13-0.15-0.25-0.2-0.39
						c-0.05-0.14-0.09-0.29-0.12-0.44c-0.06-0.3-0.06-0.62,0-0.96c0.07-0.34,0.21-0.71,0.42-1.08c0.21,0.22,0.39,0.44,0.52,0.7
						c0.07,0.13,0.12,0.26,0.16,0.4c0.05,0.13,0.08,0.27,0.11,0.42C45.09,65.06,45,65.75,44.69,66.5z"/>
				</g>
				<g>
					<path class="st2" d="M44.66,66.55c-0.28-0.1-0.56-0.2-0.86-0.25c-0.15-0.03-0.3-0.04-0.46-0.05c-0.15-0.01-0.31-0.02-0.47-0.01
						c-0.32,0.02-0.65,0.08-1,0.21c-0.34,0.12-0.69,0.3-1.04,0.56c0.32,0.25,0.68,0.42,1.02,0.52c0.17,0.05,0.34,0.09,0.51,0.11
						c0.17,0.02,0.34,0.01,0.51-0.01C43.53,67.55,44.13,67.19,44.66,66.55z"/>
				</g>
			</g>
			<g>
				<g>
					<path class="st2" d="M47.17,67.78c-0.98-0.67-1.66-1.83-1.03-3.45C47.1,65.02,47.62,66.19,47.17,67.78z"/>
				</g>
				<g>
					<path class="st2" d="M47.15,67.83c-1.15-0.28-2.44-0.19-3.7,1.03C44.93,69.61,46.28,69.21,47.15,67.83z"/>
				</g>
			</g>
			<g>
				<g>
					<path class="st2" d="M35.97,49.83c0.06-0.29,0.16-0.57,0.29-0.84c0.13-0.26,0.3-0.51,0.54-0.71c0.47-0.41,1.11-0.67,1.97-0.71
						c-0.12,0.6-0.46,1.1-0.89,1.49C37.43,49.45,36.79,49.72,35.97,49.83z"/>
				</g>
				<g>
					<path class="st2" d="M35.91,49.83c-0.04-0.29-0.11-0.58-0.22-0.87c-0.11-0.29-0.26-0.56-0.43-0.83c-0.35-0.53-0.9-1-1.71-1.34
						c-0.04,0.81,0.09,1.51,0.53,2.04C34.49,49.36,35.11,49.7,35.91,49.83z"/>
				</g>
			</g>
			<g>
				<g>
					<path class="st2" d="M36.12,52.74c0.02-0.3,0.07-0.59,0.17-0.87c0.09-0.28,0.26-0.55,0.45-0.78c0.4-0.47,0.98-0.83,1.83-0.99
						c-0.03,0.63-0.26,1.17-0.67,1.62C37.5,52.17,36.91,52.53,36.12,52.74z"/>
				</g>
				<g>
					<path class="st2" d="M36.06,52.75c-0.08-0.28-0.2-0.56-0.35-0.83c-0.15-0.27-0.3-0.52-0.52-0.76c-0.43-0.47-1.05-0.86-1.9-1.07
						c0.07,0.79,0.34,1.46,0.8,1.92C34.58,52.47,35.24,52.73,36.06,52.75z"/>
				</g>
			</g>
			<g>
				<g>
					<path class="st2" d="M36.62,55.48c-0.02-0.3-0.02-0.59,0.05-0.88c0.07-0.29,0.18-0.57,0.35-0.83c0.16-0.26,0.38-0.49,0.66-0.7
						c0.29-0.21,0.64-0.38,1.05-0.51c0.01,0.16-0.01,0.31-0.02,0.46c-0.01,0.15-0.03,0.29-0.07,0.43c-0.07,0.28-0.2,0.54-0.38,0.79
						C37.9,54.74,37.38,55.17,36.62,55.48z"/>
				</g>
				<g>
					<path class="st2" d="M36.57,55.5c-0.12-0.27-0.28-0.53-0.45-0.78c-0.17-0.25-0.37-0.48-0.62-0.69
						c-0.25-0.21-0.54-0.39-0.87-0.53c-0.33-0.14-0.7-0.25-1.14-0.3c0.04,0.2,0.07,0.38,0.14,0.56c0.07,0.18,0.15,0.34,0.24,0.5
						c0.18,0.31,0.4,0.57,0.66,0.77C35.05,55.43,35.75,55.59,36.57,55.5z"/>
				</g>
			</g>
			<g>
				<g>
					<path class="st2" d="M37.51,58.13c-0.06-0.29-0.11-0.58-0.08-0.88c0.03-0.3,0.1-0.59,0.22-0.87c0.24-0.55,0.75-1.06,1.53-1.43
						c0.03,0.15,0.04,0.3,0.04,0.45c0,0.15,0,0.29-0.01,0.43c-0.03,0.28-0.12,0.56-0.26,0.83C38.67,57.2,38.22,57.7,37.51,58.13z"/>
				</g>
				<g>
					<path class="st2" d="M37.46,58.15c-0.16-0.25-0.36-0.48-0.56-0.7c-0.2-0.22-0.44-0.42-0.71-0.59c-0.56-0.33-1.22-0.57-2.1-0.55
						c0.06,0.19,0.14,0.37,0.22,0.54c0.09,0.17,0.19,0.32,0.3,0.46c0.22,0.28,0.48,0.51,0.76,0.67
						C35.94,58.3,36.67,58.36,37.46,58.15z"/>
				</g>
			</g>
			<g>
				<g>
					<path class="st2" d="M38.78,60.61c-0.1-0.28-0.18-0.57-0.21-0.86c-0.02-0.3,0.01-0.6,0.09-0.89c0.16-0.58,0.57-1.15,1.3-1.63
						c0.05,0.15,0.08,0.29,0.1,0.44c0.03,0.14,0.05,0.28,0.05,0.42c0.01,0.28-0.04,0.57-0.14,0.86
						C39.8,59.51,39.41,60.08,38.78,60.61z"/>
				</g>
				<g>
					<path class="st2" d="M38.73,60.64c-0.19-0.22-0.41-0.43-0.66-0.61c-0.23-0.19-0.49-0.35-0.79-0.48
						c-0.29-0.13-0.63-0.22-0.99-0.26c-0.35-0.05-0.75-0.04-1.18,0.03c0.09,0.18,0.19,0.35,0.3,0.51c0.12,0.15,0.24,0.29,0.37,0.41
						c0.26,0.25,0.55,0.43,0.85,0.55C37.27,61.01,37.98,60.96,38.73,60.64z"/>
				</g>
			</g>
			<g>
				<path class="st2" d="M48.16,66.46c-0.01,0.27-0.09,1.19-0.29,1.67c-0.2,0.48-0.82,1.16-1.03,1.35c0.61-0.1,1.16-0.94,1.54-0.88
					c0.09,0.02,0.71,0.28,1.6,0.64c0.89,0.36,2.05,0.83,3.22,1.31c1.17,0.48,2.34,0.98,3.23,1.43c0.89,0.45,1.51,0.83,1.67,0.95
					c0.35,0.22,0.6,0.27,0.8,0.27c0.2,0,0.32-0.06,0.32-0.06s0.06-0.12,0.01-0.32c-0.04-0.2-0.18-0.5-0.58-0.75
					c-0.19-0.14-0.89-0.52-1.85-0.92c-0.96-0.41-2.17-0.83-3.37-1.24c-1.2-0.41-2.39-0.8-3.29-1.12c-0.9-0.32-1.51-0.57-1.59-0.62
					C48.25,67.94,48.46,66.96,48.16,66.46z"/>
			</g>
		</g>
	</g>
	<g>
		<path class="st0" d="M56.03,14.31c19.71,0,35.69,15.98,35.69,35.69S75.75,85.69,56.03,85.69S20.35,69.71,20.35,50
			S36.32,14.31,56.03,14.31 M56.03,11.97c-5.13,0-10.11,1.01-14.81,2.99c-4.53,1.92-8.6,4.66-12.09,8.15
			c-3.49,3.49-6.23,7.56-8.15,12.09C19.01,39.89,18,44.87,18,50c0,5.13,1.01,10.11,2.99,14.81c1.92,4.53,4.66,8.6,8.15,12.09
			c3.49,3.49,7.56,6.23,12.09,8.15c4.69,1.98,9.67,2.99,14.81,2.99c5.13,0,10.11-1.01,14.81-2.99c4.53-1.92,8.6-4.66,12.09-8.15
			c3.49-3.49,6.23-7.56,8.15-12.09c1.98-4.69,2.99-9.67,2.99-14.81c0-5.13-1.01-10.11-2.99-14.81c-1.92-4.53-4.66-8.6-8.15-12.09
			s-7.56-6.23-12.09-8.15C66.15,12.97,61.17,11.97,56.03,11.97L56.03,11.97z"/>
	</g>
	<g>
		<path class="st0" d="M58.6,82.86c0,0.05-0.01,0.1-0.03,0.15c-0.02,0.04-0.04,0.09-0.08,0.12c-0.03,0.03-0.07,0.06-0.12,0.08
			c-0.04,0.02-0.09,0.03-0.14,0.03c-0.05,0-0.09-0.01-0.14-0.02c-0.05-0.02-0.09-0.04-0.13-0.08l-2.76-2.71l0.06,2.82l-0.74,0.02
			l-0.08-3.7c0-0.07,0.02-0.14,0.06-0.2c0.04-0.06,0.1-0.11,0.16-0.14c0.07-0.03,0.14-0.04,0.21-0.03c0.07,0.01,0.14,0.05,0.19,0.1
			L57.85,82l-0.06-2.82l0.74-0.02L58.6,82.86z"/>
		<path class="st0" d="M65.4,78.43l-2.86,0.77l0.86,3.17l-0.71,0.19l-0.95-3.51c-0.01-0.05-0.02-0.1-0.01-0.14
			c0.01-0.05,0.02-0.09,0.05-0.14c0.02-0.04,0.05-0.08,0.09-0.11c0.04-0.03,0.08-0.05,0.13-0.07l3.21-0.87L65.4,78.43z M65.51,80.1
			l-2.25,0.61l-0.19-0.71l2.25-0.61L65.51,80.1z"/>
		<path class="st0" d="M70.72,77.87c0.1,0.22,0.16,0.44,0.17,0.66c0.01,0.22-0.02,0.43-0.1,0.63c-0.07,0.2-0.19,0.38-0.34,0.54
			c-0.15,0.16-0.34,0.3-0.56,0.4l-0.91,0.42c-0.22,0.1-0.44,0.16-0.67,0.17c-0.22,0.01-0.44-0.02-0.64-0.09
			c-0.2-0.07-0.38-0.18-0.55-0.33c-0.17-0.15-0.3-0.34-0.4-0.55l-0.32-0.69c-0.1-0.22-0.16-0.44-0.17-0.66
			c-0.01-0.22,0.02-0.43,0.1-0.63c0.07-0.2,0.19-0.38,0.34-0.54c0.15-0.16,0.34-0.3,0.56-0.4l0.91-0.42
			c0.22-0.1,0.44-0.16,0.67-0.17c0.22-0.01,0.43,0.02,0.63,0.09c0.2,0.07,0.38,0.18,0.55,0.33c0.16,0.15,0.3,0.34,0.4,0.56
			L70.72,77.87z M69.72,77.49c-0.06-0.13-0.14-0.24-0.23-0.32c-0.09-0.09-0.19-0.15-0.3-0.19c-0.11-0.04-0.23-0.05-0.36-0.05
			s-0.25,0.04-0.38,0.1l-0.91,0.42c-0.13,0.06-0.24,0.14-0.33,0.23c-0.09,0.09-0.15,0.19-0.19,0.3c-0.04,0.11-0.06,0.23-0.05,0.35
			c0.01,0.13,0.04,0.25,0.1,0.38l0.32,0.69c0.06,0.13,0.14,0.24,0.23,0.32c0.09,0.09,0.19,0.15,0.31,0.19
			c0.11,0.04,0.23,0.05,0.36,0.04c0.13-0.01,0.26-0.04,0.39-0.1l0.9-0.42c0.13-0.06,0.24-0.14,0.33-0.23
			c0.09-0.09,0.15-0.19,0.2-0.3c0.04-0.11,0.06-0.23,0.05-0.35c-0.01-0.13-0.04-0.25-0.1-0.38L69.72,77.49z"/>
		<path class="st0" d="M74.49,74.03c0.1,0.13,0.16,0.27,0.21,0.4c0.04,0.13,0.06,0.26,0.06,0.38c0,0.12-0.02,0.24-0.05,0.35
			c-0.03,0.11-0.08,0.21-0.14,0.31s-0.12,0.18-0.19,0.26c-0.07,0.08-0.14,0.14-0.22,0.19l2.02,0.18l-0.93,0.66l-2.01-0.18
			l-0.43,0.31l-0.42-0.59l1.36-0.97c0.07-0.06,0.13-0.12,0.17-0.19c0.04-0.07,0.08-0.14,0.09-0.22c0.01-0.07,0.01-0.15,0-0.23
			c-0.02-0.08-0.05-0.16-0.11-0.23l-0.27-0.37c-0.02-0.03-0.05-0.06-0.07-0.07C73.53,74,73.51,74,73.49,74c-0.02,0-0.04,0-0.05,0.01
			c-0.02,0.01-0.03,0.02-0.04,0.03l-1.99,1.41l1.9,2.67l-0.6,0.43l-2.11-2.97c-0.03-0.04-0.05-0.09-0.06-0.13
			c-0.01-0.05-0.01-0.09,0-0.14c0.01-0.05,0.02-0.09,0.05-0.13c0.03-0.04,0.06-0.08,0.1-0.11l2.29-1.62
			c0.13-0.1,0.27-0.15,0.39-0.17c0.13-0.02,0.24-0.01,0.35,0.02c0.11,0.03,0.21,0.08,0.29,0.15c0.09,0.06,0.15,0.13,0.2,0.21
			L74.49,74.03z"/>
		<path class="st0" d="M81.36,70.62l-2.18,2.57c-0.03,0.04-0.07,0.07-0.12,0.09c-0.04,0.02-0.09,0.04-0.14,0.04
			c-0.05,0-0.09,0-0.14-0.01c-0.05-0.01-0.09-0.04-0.13-0.07l-2.77-2.36l0.48-0.56l2.5,2.12l1.94-2.29L81.36,70.62z"/>
		<path class="st0" d="M82.43,68.96l-0.41,0.62l-3.34-2.22l0.41-0.61L82.43,68.96z"/>
		<path class="st0" d="M82.01,62.91l-1.34,2.64l2.92,1.48l-0.33,0.66l-3.25-1.65c-0.04-0.02-0.08-0.05-0.11-0.09
			c-0.03-0.04-0.05-0.08-0.07-0.12c-0.01-0.04-0.02-0.09-0.02-0.14c0-0.05,0.02-0.1,0.04-0.15l1.5-2.96L82.01,62.91z M83.33,63.95
			l-1.06,2.08l-0.65-0.33l1.06-2.08L83.33,63.95z"/>
		<path class="st0" d="M86.54,59.58l-0.79,2.55c-0.03,0.1-0.08,0.2-0.15,0.3c-0.07,0.11-0.16,0.2-0.27,0.27
			c-0.11,0.08-0.23,0.13-0.38,0.15c-0.14,0.03-0.31,0.01-0.49-0.04l-2.5-0.77c-0.05-0.01-0.09-0.04-0.13-0.07
			c-0.04-0.03-0.07-0.07-0.09-0.11c-0.02-0.04-0.03-0.09-0.04-0.14c0-0.05,0-0.1,0.02-0.15l0.98-3.18l0.69,0.21l-0.88,2.83
			l2.16,0.67c0.09,0.03,0.17,0.02,0.23-0.01c0.06-0.03,0.11-0.1,0.14-0.19l0.79-2.54L86.54,59.58z M84.87,59.41l-0.69,2.23
			l-0.7-0.21l0.69-2.23L84.87,59.41z"/>
		<path class="st0" d="M26.57,62.99l-0.77-2.55c-0.03-0.1-0.04-0.21-0.05-0.34c0-0.13,0.02-0.25,0.07-0.37
			c0.05-0.12,0.12-0.23,0.23-0.34c0.1-0.1,0.25-0.18,0.43-0.24L29,58.4c0.05-0.01,0.1-0.02,0.15-0.01c0.05,0.01,0.09,0.02,0.13,0.04
			c0.04,0.02,0.08,0.05,0.11,0.09c0.03,0.04,0.05,0.08,0.07,0.13l0.96,3.18l-0.7,0.21l-0.85-2.83l-2.17,0.65
			c-0.09,0.03-0.15,0.07-0.19,0.14c-0.03,0.06-0.04,0.14-0.01,0.24l0.76,2.55L26.57,62.99z M28.05,62.2l-0.67-2.23l0.7-0.21
			l0.67,2.23L28.05,62.2z"/>
		<path class="st0" d="M30.46,67.26c-0.22,0.11-0.44,0.17-0.66,0.19c-0.22,0.01-0.43-0.01-0.63-0.08c-0.2-0.07-0.38-0.18-0.55-0.32
			c-0.17-0.15-0.31-0.33-0.42-0.55l-0.9-1.78c-0.02-0.05-0.04-0.09-0.04-0.14c0-0.05,0-0.1,0.01-0.14c0.01-0.04,0.04-0.09,0.07-0.12
			c0.03-0.04,0.07-0.07,0.12-0.09l2.92-1.48c0.05-0.02,0.09-0.03,0.14-0.04c0.05,0,0.1,0,0.14,0.02c0.04,0.01,0.09,0.04,0.12,0.07
			c0.04,0.03,0.07,0.07,0.09,0.12l0.9,1.78c0.11,0.22,0.18,0.44,0.19,0.66c0.02,0.22,0,0.44-0.07,0.64
			c-0.06,0.2-0.17,0.39-0.31,0.56c-0.14,0.17-0.33,0.31-0.54,0.42L30.46,67.26z M30.71,66.31c0.13-0.06,0.23-0.14,0.31-0.24
			c0.08-0.09,0.14-0.2,0.18-0.31c0.04-0.11,0.05-0.23,0.03-0.36c-0.01-0.13-0.05-0.25-0.12-0.38l-0.74-1.45l-2.28,1.15l0.74,1.45
			c0.07,0.13,0.15,0.24,0.24,0.32c0.09,0.09,0.2,0.15,0.31,0.19c0.11,0.04,0.23,0.05,0.36,0.04c0.12-0.01,0.25-0.05,0.38-0.11
			L30.71,66.31z"/>
		<path class="st0" d="M32.52,72.28c-0.04,0.03-0.08,0.05-0.13,0.07c-0.05,0.01-0.09,0.02-0.14,0.01c-0.05-0.01-0.09-0.02-0.13-0.05
			c-0.04-0.02-0.08-0.06-0.11-0.1L31,70.89c-0.1-0.13-0.18-0.26-0.25-0.41c-0.07-0.15-0.13-0.3-0.16-0.47
			c-0.04-0.16-0.05-0.33-0.05-0.5c0-0.17,0.04-0.34,0.09-0.51c0.06-0.17,0.14-0.33,0.26-0.49c0.12-0.16,0.27-0.31,0.46-0.46
			l1.59-1.22l0.45,0.59l-1.59,1.22c-0.16,0.12-0.28,0.25-0.36,0.38c-0.08,0.13-0.13,0.26-0.15,0.39c-0.02,0.13-0.02,0.25,0,0.37
			c0.02,0.12,0.05,0.22,0.09,0.31c0.04,0.09,0.08,0.17,0.12,0.23c0.04,0.06,0.07,0.1,0.08,0.12l0.79,1.03l2.6-1.99l0.45,0.59
			L32.52,72.28z"/>
		<path class="st0" d="M36.02,76.17l-1.96-1.81c-0.05-0.04-0.1-0.1-0.15-0.17c-0.05-0.06-0.09-0.14-0.12-0.21
			c-0.03-0.08-0.06-0.16-0.07-0.25c-0.01-0.09-0.02-0.18,0-0.27c0.01-0.09,0.04-0.18,0.08-0.28c0.04-0.1,0.11-0.19,0.19-0.28
			l1.33-1.44c0.05-0.05,0.1-0.1,0.17-0.14c0.06-0.05,0.13-0.09,0.21-0.12c0.08-0.03,0.16-0.06,0.24-0.07c0.09-0.01,0.18-0.01,0.27,0
			c0.09,0.01,0.19,0.04,0.28,0.09c0.09,0.05,0.19,0.11,0.28,0.2l1.96,1.81l-0.49,0.53l-1.96-1.81c-0.07-0.07-0.14-0.1-0.21-0.1
			c-0.07,0-0.14,0.04-0.21,0.11l-1.33,1.44c-0.06,0.07-0.09,0.14-0.09,0.21c0,0.07,0.04,0.14,0.11,0.2l1.96,1.81L36.02,76.17z"/>
		<path class="st0" d="M40.55,79.26l-0.62-0.4l0.53-0.83l-2.18-1.41l-0.53,0.82l-0.62-0.4l1.09-1.68c0.16-0.25,0.35-0.44,0.57-0.59
			c0.22-0.15,0.45-0.25,0.7-0.3c0.25-0.05,0.5-0.05,0.77,0c0.26,0.05,0.52,0.16,0.76,0.32l1.4,0.9c0.04,0.03,0.08,0.06,0.11,0.1
			c0.03,0.04,0.05,0.08,0.06,0.13c0.01,0.05,0.01,0.09,0,0.14s-0.03,0.09-0.05,0.14L40.55,79.26z M38.68,76.01l2.18,1.41l0.85-1.32
			l-1.09-0.71c-0.02-0.01-0.06-0.04-0.13-0.07c-0.06-0.03-0.15-0.07-0.24-0.1c-0.09-0.03-0.2-0.05-0.32-0.06
			c-0.12-0.01-0.24,0-0.37,0.03c-0.13,0.03-0.25,0.09-0.38,0.18c-0.13,0.09-0.24,0.22-0.35,0.39L38.68,76.01z"/>
		<path class="st0" d="M46.68,78.44l-1.5-0.64l-1.29,3.01l-0.68-0.29l1.29-3.01L43,76.86l0.29-0.67l3.67,1.58L46.68,78.44z"/>
		<path class="st0" d="M47.26,81.99l-0.71-0.21l1.15-3.84l0.71,0.21L47.26,81.99z"/>
		<path class="st0" d="M53.26,81.55c-0.04,0.24-0.12,0.46-0.24,0.64c-0.12,0.19-0.26,0.34-0.44,0.47c-0.17,0.12-0.37,0.21-0.59,0.26
			c-0.22,0.05-0.45,0.05-0.69,0.01l-0.99-0.16c-0.24-0.04-0.46-0.12-0.65-0.23c-0.19-0.12-0.35-0.26-0.48-0.43
			c-0.13-0.17-0.21-0.37-0.27-0.58c-0.05-0.22-0.06-0.44-0.02-0.69l0.12-0.75c0.04-0.24,0.12-0.45,0.24-0.64
			c0.12-0.19,0.26-0.34,0.44-0.47c0.17-0.12,0.37-0.21,0.59-0.26c0.22-0.05,0.45-0.05,0.69-0.01l0.99,0.16
			c0.24,0.04,0.46,0.12,0.65,0.23c0.19,0.12,0.35,0.26,0.47,0.43c0.13,0.17,0.21,0.36,0.26,0.58c0.05,0.22,0.06,0.45,0.02,0.68
			L53.26,81.55z M52.66,80.67c0.02-0.14,0.02-0.27-0.01-0.4c-0.03-0.12-0.07-0.23-0.14-0.33c-0.07-0.09-0.16-0.18-0.27-0.24
			c-0.11-0.07-0.23-0.11-0.37-0.13l-0.99-0.16c-0.14-0.02-0.28-0.02-0.4,0c-0.12,0.02-0.23,0.07-0.33,0.14
			c-0.1,0.07-0.18,0.16-0.24,0.26c-0.06,0.11-0.11,0.23-0.13,0.37l-0.13,0.76c-0.02,0.14-0.02,0.27,0.01,0.39
			c0.03,0.12,0.07,0.23,0.15,0.33c0.07,0.1,0.16,0.18,0.27,0.24c0.11,0.06,0.23,0.11,0.38,0.13l0.98,0.16c0.14,0.02,0.28,0.02,0.4,0
			c0.12-0.03,0.23-0.07,0.33-0.14c0.1-0.07,0.18-0.16,0.24-0.26c0.06-0.11,0.11-0.23,0.13-0.37L52.66,80.67z"/>
		<path class="st0" d="M28.03,45.33c-0.02,0.08-0.04,0.14-0.08,0.17c-0.04,0.03-0.1,0.03-0.17,0.02l-2.71-0.52l0.71-3.74l-1.23-0.24
			l-0.83,4.36c-0.02,0.09-0.02,0.17,0,0.25c0.02,0.08,0.05,0.16,0.1,0.23c0.05,0.06,0.1,0.12,0.17,0.17
			c0.07,0.05,0.15,0.08,0.23,0.09l3.32,0.63c0.12,0.02,0.23,0.03,0.33,0.03c0.13,0,0.26-0.02,0.37-0.05
			c0.2-0.06,0.38-0.16,0.52-0.28c0.14-0.12,0.26-0.27,0.34-0.43c0.08-0.16,0.14-0.31,0.16-0.45l0.67-3.52l-1.23-0.24L28.03,45.33z"
			/>
		<path class="st0" d="M27.78,42.07l-0.62,3.26l-1.24-0.24l0.62-3.26L27.78,42.07z"/>
		<path class="st0" d="M30.79,36.25c-0.21-0.22-0.48-0.39-0.79-0.52l-0.78-0.32c-0.31-0.13-0.61-0.19-0.92-0.19c0,0-0.01,0-0.01,0
			c-0.31,0-0.6,0.06-0.87,0.17c-0.27,0.11-0.51,0.28-0.73,0.5c-0.22,0.22-0.39,0.49-0.52,0.8l-0.98,2.37
			c-0.03,0.08-0.05,0.17-0.05,0.25c0,0.09,0.02,0.17,0.05,0.24c0.03,0.07,0.08,0.14,0.13,0.2c0.06,0.06,0.13,0.11,0.21,0.14
			l3.9,1.62c0.08,0.03,0.16,0.05,0.24,0.05c0,0,0.01,0,0.01,0c0.08,0,0.16-0.02,0.24-0.05c0.07-0.03,0.14-0.08,0.2-0.14
			c0.06-0.06,0.11-0.13,0.14-0.21l0.98-2.37c0.13-0.31,0.19-0.62,0.2-0.93c0-0.31-0.05-0.6-0.16-0.87
			C31.17,36.71,31,36.46,30.79,36.25z M30.18,37.86c0,0.15-0.04,0.29-0.1,0.44l-0.74,1.79l-2.75-1.14l0.74-1.79
			c0.06-0.16,0.14-0.28,0.24-0.38c0.1-0.1,0.21-0.18,0.33-0.23c0.12-0.05,0.26-0.08,0.39-0.07c0.14,0,0.29,0.03,0.44,0.1l0.78,0.32
			c0.15,0.06,0.28,0.14,0.38,0.24c0.1,0.1,0.17,0.2,0.22,0.33C30.16,37.59,30.19,37.72,30.18,37.86z"/>
		<path class="st0" d="M34.89,31.51l-3.99-2.76l-0.72,1.04l3.48,2.41l-0.86,1.24c-0.01,0.02-0.05,0.06-0.11,0.13
			c-0.06,0.07-0.13,0.14-0.22,0.21c-0.09,0.07-0.19,0.15-0.32,0.21c-0.12,0.06-0.25,0.11-0.4,0.13c-0.14,0.02-0.3,0.01-0.48-0.03
			c-0.17-0.04-0.36-0.13-0.56-0.26l-2.25-1.56l-0.72,1.04l2.25,1.56c0.26,0.18,0.53,0.32,0.78,0.4c0.26,0.08,0.51,0.13,0.76,0.13
			c0.01,0,0.03,0,0.04,0c0.23,0,0.45-0.03,0.67-0.09c0.22-0.06,0.44-0.16,0.63-0.27c0.19-0.11,0.37-0.25,0.54-0.4
			c0.16-0.15,0.3-0.32,0.42-0.49l1.22-1.76c0.05-0.07,0.08-0.15,0.1-0.23c0.02-0.08,0.02-0.16,0.01-0.24
			c-0.01-0.08-0.04-0.16-0.09-0.23C35.02,31.62,34.96,31.56,34.89,31.51z"/>
		<path class="st0" d="M35.81,29.72l-2.92-3.06l-0.92,0.88l3.35,3.51c0.06,0.06,0.13,0.11,0.21,0.15c0.08,0.03,0.16,0.05,0.24,0.05
			c0,0,0.01,0,0.01,0c0.08,0,0.15-0.01,0.23-0.04c0.08-0.03,0.15-0.08,0.21-0.14l3.25-3.1l-0.87-0.91L35.81,29.72z"/>
		<polygon class="st0" points="37.51,22.77 36.48,23.51 39.62,27.82 39.71,27.94 40.74,27.2 37.6,22.9 		"/>
		
			<rect x="40.85" y="22.31" transform="matrix(0.8796 -0.4757 0.4757 0.8796 -5.7931 22.985)" class="st0" width="3.32" height="1.26"/>
		<path class="st0" d="M43.63,20.64l-0.6-1.1l-3.9,2.12c-0.08,0.04-0.14,0.1-0.2,0.16c-0.05,0.06-0.09,0.14-0.12,0.22
			c-0.02,0.08-0.03,0.16-0.02,0.24c0.01,0.08,0.03,0.17,0.07,0.24l2.32,4.26l1.11-0.61l-2.02-3.72L43.63,20.64z"/>
		<path class="st0" d="M46.9,22.66c-0.08,0.02-0.14,0.02-0.18,0c-0.04-0.02-0.08-0.07-0.1-0.15l-0.81-2.63l3.64-1.11l-0.37-1.2
			l-4.24,1.3c-0.08,0.02-0.16,0.07-0.22,0.12c-0.07,0.05-0.12,0.12-0.16,0.19c-0.04,0.07-0.06,0.15-0.07,0.23
			c-0.01,0.08,0,0.17,0.02,0.25l0.99,3.23c0.08,0.26,0.2,0.46,0.35,0.61c0.15,0.15,0.32,0.26,0.49,0.33c0.17,0.07,0.34,0.1,0.52,0.1
			c0.01,0,0.01,0,0.02,0c0.18,0,0.34-0.02,0.48-0.07l3.43-1.05l-0.37-1.2L46.9,22.66z"/>
		
			<rect x="46.23" y="20.17" transform="matrix(0.9561 -0.2931 0.2931 0.9561 -3.9948 14.9504)" class="st0" width="3.32" height="1.26"/>
		<polygon class="st0" points="54.27,16.97 53,17.06 53.39,22.37 53.41,22.53 54.67,22.43 54.28,17.13 		"/>
		<polygon class="st0" points="55.07,18.08 57.16,18.19 56.93,22.42 58.19,22.49 58.43,18.26 60.52,18.38 60.59,17.13 55.14,16.82 
					"/>
		<path class="st0" d="M68.26,22.29c-0.04-0.15-0.1-0.29-0.18-0.41c-0.07-0.12-0.16-0.23-0.26-0.32s-0.2-0.18-0.31-0.25
			c-0.1-0.06-0.21-0.12-0.33-0.16l-2.06-0.73c-0.13-0.04-0.21-0.11-0.25-0.2c-0.04-0.09-0.04-0.2,0.01-0.33
			c0.05-0.13,0.11-0.22,0.21-0.27c0.09-0.05,0.2-0.05,0.33,0l3.05,1.08l0.15,0.05l0.42-1.18l-3.19-1.13
			c-0.16-0.06-0.34-0.09-0.54-0.1c-0.2-0.01-0.41,0.02-0.61,0.09c-0.21,0.07-0.4,0.19-0.57,0.35c-0.18,0.17-0.32,0.39-0.42,0.68
			c-0.1,0.29-0.14,0.56-0.1,0.8c0.03,0.24,0.11,0.45,0.22,0.63c0.11,0.18,0.25,0.33,0.42,0.45c0.16,0.12,0.32,0.21,0.48,0.26
			l2.06,0.73c0.06,0.02,0.12,0.05,0.16,0.09c0.04,0.04,0.07,0.08,0.09,0.12c0.02,0.05,0.03,0.1,0.03,0.15
			c0,0.06-0.01,0.12-0.03,0.18c-0.04,0.13-0.11,0.21-0.21,0.26c-0.09,0.04-0.2,0.05-0.33,0l-3.45-1.22l-0.15-0.05l-0.42,1.18
			l3.6,1.28c0.1,0.04,0.22,0.06,0.35,0.08c0.08,0.01,0.16,0.02,0.24,0.02c0.05,0,0.1,0,0.16-0.01c0.13-0.01,0.27-0.04,0.41-0.08
			c0.14-0.04,0.28-0.11,0.4-0.2c0.12-0.09,0.23-0.2,0.34-0.34c0.11-0.14,0.19-0.3,0.26-0.49c0.07-0.19,0.1-0.37,0.11-0.54
			C68.32,22.6,68.3,22.44,68.26,22.29z"/>
		<path class="st0" d="M69.67,24.68c-0.07-0.04-0.1-0.08-0.12-0.13c-0.01-0.05,0-0.11,0.04-0.17l1.31-2.17
			c0.04-0.07,0.09-0.11,0.13-0.12c0.05-0.01,0.11,0,0.18,0.05l3.07,1.85l0.65-1.07l-3.07-1.85c-0.16-0.09-0.31-0.16-0.45-0.19
			c-0.15-0.04-0.29-0.05-0.42-0.04c-0.14,0.01-0.26,0.04-0.39,0.08c-0.12,0.04-0.23,0.1-0.33,0.17c-0.1,0.07-0.18,0.14-0.26,0.23
			c-0.08,0.08-0.14,0.17-0.19,0.25l-1.31,2.17c-0.09,0.15-0.15,0.3-0.19,0.45c-0.03,0.15-0.05,0.29-0.04,0.43
			c0.01,0.14,0.04,0.26,0.09,0.38c0.04,0.12,0.1,0.22,0.17,0.32c0.07,0.09,0.14,0.18,0.23,0.26c0.09,0.08,0.17,0.14,0.25,0.19
			l3.07,1.85l0.65-1.08L69.67,24.68z"/>
		<polygon class="st0" points="79.2,26.67 77.76,28.21 75.56,26.16 77,24.61 76.07,23.75 72.33,27.76 73.26,28.62 74.7,27.08 
			76.9,29.13 75.46,30.68 76.39,31.54 80.13,27.53 		"/>
		<path class="st0" d="M81.87,35.48l0.82-0.56c0.27-0.18,0.5-0.41,0.67-0.67c0.17-0.25,0.28-0.53,0.33-0.82
			c0.05-0.29,0.04-0.59-0.02-0.89c-0.06-0.3-0.19-0.59-0.38-0.87l-0.72-1.06c-0.19-0.28-0.41-0.5-0.67-0.67
			c-0.26-0.17-0.53-0.29-0.82-0.35c-0.29-0.06-0.58-0.05-0.89,0.01c-0.3,0.06-0.59,0.19-0.87,0.37l-0.82,0.56
			c-0.28,0.19-0.5,0.41-0.67,0.67c-0.17,0.26-0.28,0.53-0.33,0.82c-0.05,0.29-0.04,0.59,0.02,0.89c0.07,0.3,0.2,0.59,0.38,0.87
			l0.72,1.06c0.19,0.27,0.41,0.5,0.67,0.67c0.26,0.17,0.53,0.29,0.82,0.34c0.14,0.03,0.28,0.04,0.42,0.04
			c0.15,0,0.31-0.02,0.47-0.05C81.31,35.79,81.6,35.66,81.87,35.48z M82.45,33.19c-0.02,0.13-0.07,0.25-0.15,0.37
			c-0.08,0.12-0.19,0.22-0.32,0.31l-0.82,0.56c-0.14,0.09-0.27,0.16-0.41,0.19c-0.14,0.03-0.27,0.03-0.39,0.01
			c-0.13-0.03-0.25-0.08-0.37-0.16c-0.12-0.08-0.22-0.19-0.32-0.33l-0.72-1.06c-0.09-0.14-0.16-0.28-0.19-0.41
			c-0.03-0.14-0.04-0.27-0.01-0.4c0.02-0.13,0.07-0.25,0.15-0.37c0.08-0.12,0.19-0.22,0.32-0.32l0.82-0.55
			c0.14-0.09,0.27-0.16,0.41-0.19c0.13-0.03,0.26-0.03,0.39-0.01c0.13,0.03,0.25,0.08,0.37,0.16c0.12,0.08,0.22,0.19,0.32,0.33
			l0.72,1.06c0.09,0.13,0.15,0.27,0.19,0.41C82.47,32.93,82.47,33.07,82.45,33.19z"/>
		<path class="st0" d="M83.44,41.79c0.01,0,0.02,0,0.04,0c0.29,0,0.59-0.06,0.89-0.18l0.92-0.36c0.31-0.12,0.58-0.29,0.8-0.51
			c0.22-0.21,0.39-0.46,0.5-0.73c0.11-0.27,0.17-0.56,0.18-0.87c0-0.31-0.06-0.62-0.18-0.93l-0.47-1.19
			c-0.12-0.31-0.29-0.58-0.5-0.8c-0.21-0.22-0.46-0.4-0.72-0.52c-0.27-0.12-0.56-0.18-0.87-0.19c-0.01,0-0.02,0-0.04,0
			c-0.3,0-0.59,0.06-0.89,0.18l-0.92,0.36c-0.31,0.12-0.58,0.29-0.8,0.51c-0.22,0.21-0.39,0.46-0.5,0.73
			c-0.11,0.27-0.17,0.56-0.17,0.87c0,0.31,0.06,0.62,0.18,0.93l0.47,1.2c0.12,0.31,0.29,0.58,0.5,0.8c0.21,0.22,0.45,0.4,0.72,0.52
			C82.85,41.72,83.14,41.78,83.44,41.79z M84,36.78c0.14,0,0.27,0.03,0.39,0.08c0.12,0.05,0.23,0.13,0.32,0.24
			c0.1,0.11,0.18,0.23,0.24,0.39l0.47,1.2c0.06,0.15,0.09,0.3,0.09,0.44c0,0.14-0.02,0.27-0.08,0.39c-0.05,0.12-0.13,0.23-0.23,0.32
			c-0.1,0.1-0.23,0.18-0.38,0.24l-0.92,0.36c-0.31,0.12-0.59,0.11-0.83,0.01c-0.12-0.06-0.23-0.14-0.32-0.24
			c-0.1-0.1-0.18-0.23-0.24-0.39l-0.47-1.19c-0.06-0.15-0.09-0.3-0.09-0.45c0-0.14,0.02-0.27,0.07-0.39
			c0.05-0.12,0.13-0.23,0.23-0.33c0.1-0.1,0.23-0.18,0.38-0.23l0.92-0.36C83.71,36.81,83.85,36.77,84,36.78z"/>
		<path class="st0" d="M87.78,43.15l-4.01,0.69l0.65,3.8l-1.24,0.21l-0.03-0.16l-0.73-4.27c-0.01-0.09-0.01-0.17,0-0.25
			c0.02-0.08,0.05-0.16,0.1-0.22c0.04-0.06,0.1-0.12,0.18-0.17c0.07-0.04,0.15-0.07,0.24-0.09l4.79-0.82l0.21,1.25L87.78,43.15z"/>
	</g>
</g>
</svg>
